<svg xmlns="http://www.w3.org/2000/svg" viewBox="0 0 2326.59 785.49">
                <title>Sin título-1</title>
                <g stroke="#fff" stroke-width="3" fill="#ECE9E4">
                    <path d="M-198.31,955.74a1142.93,1142.93,0,0,1,114-567Q-63,345.27-38,303.69c16.27-27,33.2-54.29,54.44-77.76,36.76-40.61,99.48-71.21,151.1-37.05,29.12,19.27,35.16,54.39,35.65,86.87.54,36.42-3.16,72.89-8.73,108.83C174,515.95,126.42,646.66,145,781.27c2.87,20.79,22.84,140.65,64.9,104.06,10.28-8.94,18.42-21.64,26.06-32.82,9.3-13.6,17.82-27.7,26.67-41.6,17.07-26.81,36-51.83,59.41-73.43a322.89,322.89,0,0,1,74.16-51.19C422.88,673,455.82,658.93,486,657.52c36.26-1.7,32.1,38.76,32.87,63.71.62,20.13,6.69,38.43,20.18,53.64C567.91,807.43,617.67,819,659.54,814c61.46-7.34,115.89-41.75,176.77-51.82C909.76,750,982,777,1053.65,788.82a775,775,0,0,0,200.26,6.68,773,773,0,0,0,99.29-16.14c36.16-8.34,70.72-22.52,108-12.16,14.58,4,28.51,10.08,42.89,14.72a330.27,330.27,0,0,0,51.57,12c31.19,4.77,62.82,5.72,94.33,5.2,64.86-1.06,129.86-8.44,194.69-2.59,34.33,3.1,67.11,11,99.63,22.24,31.26,10.81,62,23.45,94.37,30.84,27.63,6.31,55.79,8,83.51,1.32,1.88-.45,1.08-3.34-.8-2.89-68.65,16.47-134.11-19.69-198-39.28-63.25-19.4-129.1-18.66-194.53-15.71-66.66,3-134.79,8.12-200.38-7.42-30.41-7.21-59.54-23.91-91-25.63-32.92-1.8-66.1,12.56-97.89,19.32a773.17,773.17,0,0,1-212,15.07,783.58,783.58,0,0,1-107.74-14.94c-33.65-7-67-15.56-101.15-20.13-33.13-4.44-66.38-4.45-99.06,3.11-31.69,7.33-61.77,20-92.37,30.75-52.71,18.54-109.62,29.34-160.74-.1-20.94-12.06-38.17-30.93-43.07-55.16-4.35-21.51,2.56-45.81-6.79-66.31-10.59-23.2-37.14-17.09-57.09-12.06a320.47,320.47,0,0,0-77.71,31c-51.13,28.55-90.57,69.82-121.81,118.9-8.85,13.89-17.37,28-26.67,41.6-8.27,12.09-24.95,42.65-43.12,37-16.61-5.17-22.92-29.29-27.7-43.65a347.58,347.58,0,0,1-12-47.38c-25.3-139,25.67-275.73,46.73-411.6C202.49,351.83,206,318,206.16,284c.13-27.63-1.68-57.91-19-80.8-27.55-36.35-82.26-38.62-120.7-20.1-52.62,25.34-84.87,81.1-113.27,129.5a1131.43,1131.43,0,0,0-81.92,171.35A1148.31,1148.31,0,0,0-202.9,858.88q-1.32,48.45,1.59,96.86c.11,1.92,3.11,1.93,3,0Z" transform="translate(203.3 -171.69)" fill="none"/>
                </g>
            </svg>